<svg width="106.56" height="14.28" viewBox="0 0 106.56 14.28" xmlns="http://www.w3.org/2000/svg" alt="Dušan Lazić logo" aria-label="Dušan Lazić logo"><g id="svgGroup" stroke-linecap="round" fill-rule="evenodd" font-size="9pt" stroke="#fb4b13" stroke-width="0.25mm" fill="#fb4b13" style="stroke:#fb4b13;stroke-width:0.25mm;fill:#fb4b13"><path d="M 24.96 10.78 L 26.46 10.44 A 4.522 4.522 0 0 0 26.611 11.077 Q 26.716 11.402 26.865 11.662 A 2.273 2.273 0 0 0 27.06 11.95 Q 27.5 12.5 28.15 12.73 A 4.084 4.084 0 0 0 29.379 12.957 A 4.669 4.669 0 0 0 29.54 12.96 Q 30.332 12.96 30.885 12.732 A 2.118 2.118 0 0 0 31.28 12.52 Q 31.917 12.082 31.92 11.347 A 1.715 1.715 0 0 0 31.92 11.34 A 1.466 1.466 0 0 0 31.862 10.914 A 1.04 1.04 0 0 0 31.31 10.27 A 4.023 4.023 0 0 0 30.838 10.07 Q 30.336 9.891 29.64 9.76 L 28.82 9.62 A 7.896 7.896 0 0 1 27.708 9.35 A 6.67 6.67 0 0 1 27.1 9.12 Q 26.32 8.78 25.86 8.2 A 2.089 2.089 0 0 1 25.445 7.262 A 2.892 2.892 0 0 1 25.4 6.74 A 2.726 2.726 0 0 1 25.562 5.78 A 2.368 2.368 0 0 1 26.42 4.68 A 3.647 3.647 0 0 1 27.637 4.116 Q 28.134 3.984 28.72 3.951 A 7.101 7.101 0 0 1 29.12 3.94 Q 30.501 3.94 31.446 4.459 A 3.392 3.392 0 0 1 31.81 4.69 A 3.344 3.344 0 0 1 33.063 6.5 A 4.362 4.362 0 0 1 33.14 6.8 L 31.66 7.18 A 3.071 3.071 0 0 0 31.499 6.579 Q 31.268 5.986 30.8 5.69 A 2.687 2.687 0 0 0 29.907 5.337 Q 29.553 5.262 29.146 5.26 A 4.618 4.618 0 0 0 29.12 5.26 A 4.391 4.391 0 0 0 28.509 5.3 Q 27.93 5.381 27.54 5.63 A 1.236 1.236 0 0 0 27.124 6.054 Q 26.987 6.291 26.965 6.597 A 1.68 1.68 0 0 0 26.96 6.72 A 1.397 1.397 0 0 0 27.022 7.149 A 1.066 1.066 0 0 0 27.51 7.75 Q 27.931 8.002 28.568 8.155 A 6.645 6.645 0 0 0 28.98 8.24 L 29.8 8.38 A 11.816 11.816 0 0 1 30.846 8.608 A 9.08 9.08 0 0 1 31.67 8.87 A 3.563 3.563 0 0 1 32.394 9.234 A 2.794 2.794 0 0 1 32.99 9.76 A 2.011 2.011 0 0 1 33.411 10.626 A 2.938 2.938 0 0 1 33.48 11.28 A 3.087 3.087 0 0 1 33.333 12.258 A 2.478 2.478 0 0 1 32.41 13.5 Q 31.34 14.28 29.54 14.28 A 6.544 6.544 0 0 1 28.106 14.13 A 4.777 4.777 0 0 1 26.47 13.44 A 3.281 3.281 0 0 1 25.219 11.822 A 4.938 4.938 0 0 1 24.96 10.78 Z M 49.14 14 L 47.56 14 L 47.56 4.22 L 49.1 4.22 L 49.1 5.88 L 49.38 5.88 A 2.883 2.883 0 0 1 49.88 5.136 Q 50.132 4.86 50.47 4.61 A 2.517 2.517 0 0 1 51.2 4.246 Q 51.838 4.04 52.74 4.04 A 4.506 4.506 0 0 1 53.905 4.186 A 3.824 3.824 0 0 1 54.71 4.5 A 3.437 3.437 0 0 1 56.067 5.804 A 4.091 4.091 0 0 1 56.1 5.86 Q 56.59 6.707 56.618 7.927 A 6.518 6.518 0 0 1 56.62 8.08 L 56.62 14 L 55.04 14 L 55.04 8.2 Q 55.04 7.306 54.766 6.712 A 1.926 1.926 0 0 0 54.31 6.08 Q 53.58 5.42 52.34 5.42 A 3.571 3.571 0 0 0 51.255 5.578 A 2.902 2.902 0 0 0 50.03 6.34 A 2.901 2.901 0 0 0 49.37 7.464 Q 49.219 7.918 49.167 8.472 A 6.541 6.541 0 0 0 49.14 9.08 L 49.14 14 Z M 13.24 10.14 L 13.24 4.22 L 14.82 4.22 L 14.82 10.02 Q 14.82 10.914 15.094 11.508 A 1.926 1.926 0 0 0 15.55 12.14 Q 16.28 12.8 17.52 12.8 A 3.481 3.481 0 0 0 18.649 12.624 A 2.951 2.951 0 0 0 19.82 11.88 Q 20.565 11.119 20.693 9.741 A 6.478 6.478 0 0 0 20.72 9.14 L 20.72 4.22 L 22.3 4.22 L 22.3 14 L 20.76 14 L 20.76 12.34 L 20.48 12.34 A 2.833 2.833 0 0 1 19.993 13.067 Q 19.752 13.332 19.429 13.574 A 4.885 4.885 0 0 1 19.38 13.61 A 2.57 2.57 0 0 1 18.644 13.974 Q 18.293 14.087 17.864 14.138 A 6.473 6.473 0 0 1 17.1 14.18 A 4.246 4.246 0 0 1 15.493 13.878 A 4.07 4.07 0 0 1 15.15 13.72 Q 14.26 13.26 13.75 12.35 A 3.858 3.858 0 0 1 13.339 11.207 Q 13.246 10.742 13.24 10.211 A 6.545 6.545 0 0 1 13.24 10.14 Z M 96.2 9.22 L 96.2 9 A 6.432 6.432 0 0 1 96.325 7.704 A 4.72 4.72 0 0 1 96.85 6.29 Q 97.5 5.16 98.63 4.55 A 5.115 5.115 0 0 1 100.647 3.962 A 6.25 6.25 0 0 1 101.18 3.94 Q 102.517 3.94 103.48 4.414 A 3.871 3.871 0 0 1 103.57 4.46 A 4.35 4.35 0 0 1 104.644 5.243 A 3.914 3.914 0 0 1 105.13 5.84 Q 105.7 6.7 105.86 7.68 L 104.32 8 Q 104.22 7.28 103.85 6.68 A 2.68 2.68 0 0 0 102.901 5.766 A 3.179 3.179 0 0 0 102.82 5.72 A 2.811 2.811 0 0 0 102.047 5.442 Q 101.658 5.36 101.2 5.36 A 3.738 3.738 0 0 0 100.164 5.499 A 3.231 3.231 0 0 0 99.45 5.8 A 3.167 3.167 0 0 0 98.244 7.034 A 3.763 3.763 0 0 0 98.23 7.06 A 3.556 3.556 0 0 0 97.856 8.139 A 4.895 4.895 0 0 0 97.78 9.02 L 97.78 9.2 A 4.844 4.844 0 0 0 97.866 10.136 A 3.531 3.531 0 0 0 98.23 11.16 A 3.239 3.239 0 0 0 99.074 12.168 A 3.123 3.123 0 0 0 99.45 12.42 Q 100.22 12.86 101.2 12.86 Q 102.66 12.86 103.43 12.1 Q 104.2 11.34 104.38 10.22 L 105.94 10.56 Q 105.72 11.52 105.14 12.38 A 4.155 4.155 0 0 1 103.782 13.642 A 4.94 4.94 0 0 1 103.57 13.76 A 4.365 4.365 0 0 1 102.365 14.173 Q 101.849 14.273 101.259 14.28 A 7.443 7.443 0 0 1 101.18 14.28 Q 99.76 14.28 98.63 13.67 Q 97.5 13.06 96.85 11.92 A 4.861 4.861 0 0 1 96.292 10.331 A 6.484 6.484 0 0 1 96.2 9.22 Z M 88.96 14 L 80.92 14 L 80.92 11.96 L 87.14 5.82 L 87.14 5.6 L 81.12 5.6 L 81.12 4.22 L 88.8 4.22 L 88.8 6.26 L 82.56 12.4 L 82.56 12.64 L 88.96 12.64 L 88.96 14 Z M 39.08 8.26 L 42.38 8.26 L 42.38 7.54 A 2.859 2.859 0 0 0 42.301 6.849 A 1.967 1.967 0 0 0 41.77 5.9 Q 41.26 5.398 40.338 5.316 A 4.254 4.254 0 0 0 39.96 5.3 A 3.947 3.947 0 0 0 39.242 5.361 Q 38.828 5.438 38.502 5.61 A 2.037 2.037 0 0 0 38.12 5.87 A 2.743 2.743 0 0 0 37.356 6.971 A 3.553 3.553 0 0 0 37.22 7.4 L 35.74 6.92 Q 35.98 6.1 36.5 5.43 A 3.536 3.536 0 0 1 37.428 4.601 A 4.417 4.417 0 0 1 37.89 4.35 A 4.1 4.1 0 0 1 38.88 4.036 Q 39.389 3.94 39.98 3.94 A 5.879 5.879 0 0 1 41.123 4.044 Q 41.814 4.181 42.349 4.498 A 3.182 3.182 0 0 1 42.9 4.91 A 3.166 3.166 0 0 1 43.825 6.558 A 4.812 4.812 0 0 1 43.94 7.64 L 43.94 12.06 A 0.93 0.93 0 0 0 43.966 12.292 Q 44.062 12.66 44.5 12.66 L 45.4 12.66 L 45.4 14 L 44.02 14 A 1.912 1.912 0 0 1 43.562 13.948 A 1.343 1.343 0 0 1 42.96 13.63 A 1.225 1.225 0 0 1 42.574 12.864 A 1.724 1.724 0 0 1 42.56 12.64 L 42.56 12.54 L 42.32 12.54 Q 42.114 12.896 41.776 13.278 A 6.543 6.543 0 0 1 41.73 13.33 A 2.385 2.385 0 0 1 41.261 13.726 Q 41.02 13.883 40.72 14.01 Q 40.239 14.213 39.542 14.263 A 6.699 6.699 0 0 1 39.06 14.28 A 5.023 5.023 0 0 1 37.912 14.153 A 4.281 4.281 0 0 1 37.2 13.92 A 3.266 3.266 0 0 1 36.369 13.414 A 2.853 2.853 0 0 1 35.88 12.88 Q 35.4 12.2 35.4 11.22 Q 35.4 10.225 35.876 9.576 A 2.202 2.202 0 0 1 35.88 9.57 A 2.807 2.807 0 0 1 36.85 8.75 A 3.517 3.517 0 0 1 37.2 8.59 A 4.741 4.741 0 0 1 38.389 8.299 A 5.958 5.958 0 0 1 39.08 8.26 Z M 72.88 8.26 L 76.18 8.26 L 76.18 7.54 A 2.859 2.859 0 0 0 76.101 6.849 A 1.967 1.967 0 0 0 75.57 5.9 Q 75.06 5.398 74.138 5.316 A 4.254 4.254 0 0 0 73.76 5.3 A 3.947 3.947 0 0 0 73.042 5.361 Q 72.628 5.438 72.302 5.61 A 2.037 2.037 0 0 0 71.92 5.87 A 2.743 2.743 0 0 0 71.156 6.971 A 3.553 3.553 0 0 0 71.02 7.4 L 69.54 6.92 Q 69.78 6.1 70.3 5.43 A 3.536 3.536 0 0 1 71.228 4.601 A 4.417 4.417 0 0 1 71.69 4.35 A 4.1 4.1 0 0 1 72.68 4.036 Q 73.189 3.94 73.78 3.94 A 5.879 5.879 0 0 1 74.923 4.044 Q 75.614 4.181 76.149 4.498 A 3.182 3.182 0 0 1 76.7 4.91 A 3.166 3.166 0 0 1 77.625 6.558 A 4.812 4.812 0 0 1 77.74 7.64 L 77.74 12.06 A 0.93 0.93 0 0 0 77.766 12.292 Q 77.862 12.66 78.3 12.66 L 79.2 12.66 L 79.2 14 L 77.82 14 A 1.912 1.912 0 0 1 77.362 13.948 A 1.343 1.343 0 0 1 76.76 13.63 A 1.225 1.225 0 0 1 76.374 12.864 A 1.724 1.724 0 0 1 76.36 12.64 L 76.36 12.54 L 76.12 12.54 Q 75.914 12.896 75.576 13.278 A 6.543 6.543 0 0 1 75.53 13.33 A 2.385 2.385 0 0 1 75.061 13.726 Q 74.82 13.883 74.52 14.01 Q 74.039 14.213 73.342 14.263 A 6.699 6.699 0 0 1 72.86 14.28 A 5.023 5.023 0 0 1 71.712 14.153 A 4.281 4.281 0 0 1 71 13.92 A 3.266 3.266 0 0 1 70.169 13.414 A 2.853 2.853 0 0 1 69.68 12.88 Q 69.2 12.2 69.2 11.22 Q 69.2 10.225 69.676 9.576 A 2.202 2.202 0 0 1 69.68 9.57 A 2.807 2.807 0 0 1 70.65 8.75 A 3.517 3.517 0 0 1 71 8.59 A 4.741 4.741 0 0 1 72.189 8.299 A 5.958 5.958 0 0 1 72.88 8.26 Z M 0 9.24 L 0 8.98 A 6.609 6.609 0 0 1 0.119 7.697 A 4.869 4.869 0 0 1 0.62 6.29 A 4.548 4.548 0 0 1 1.704 4.958 A 4.304 4.304 0 0 1 2.29 4.55 A 4.546 4.546 0 0 1 4.58 3.94 A 5.354 5.354 0 0 1 4.62 3.94 Q 5.64 3.94 6.35 4.21 A 4.281 4.281 0 0 1 6.92 4.473 Q 7.253 4.659 7.5 4.89 A 3.617 3.617 0 0 1 7.922 5.353 A 2.895 2.895 0 0 1 8.18 5.76 L 8.46 5.76 L 8.46 0 L 10.04 0 L 10.04 14 L 8.5 14 L 8.5 12.38 L 8.22 12.38 A 3.42 3.42 0 0 1 7.6 13.192 A 4.66 4.66 0 0 1 6.98 13.7 A 2.907 2.907 0 0 1 6.155 14.085 Q 5.787 14.195 5.348 14.243 A 6.712 6.712 0 0 1 4.62 14.28 Q 3.36 14.28 2.3 13.68 A 4.28 4.28 0 0 1 0.699 12.08 A 5.129 5.129 0 0 1 0.62 11.94 A 4.998 4.998 0 0 1 0.095 10.395 A 6.752 6.752 0 0 1 0 9.24 Z M 66.54 14 L 64.96 14 L 64.96 0 L 66.54 0 L 66.54 14 Z M 8.46 9.2 L 8.46 9.02 Q 8.46 7.584 7.813 6.673 A 2.994 2.994 0 0 0 7.51 6.31 A 3.19 3.19 0 0 0 5.502 5.364 A 4.376 4.376 0 0 0 5.04 5.34 A 3.795 3.795 0 0 0 3.829 5.526 A 3.194 3.194 0 0 0 2.57 6.31 Q 1.629 7.251 1.601 8.918 A 6.121 6.121 0 0 0 1.6 9.02 L 1.6 9.2 A 5.012 5.012 0 0 0 1.715 10.305 Q 1.934 11.273 2.57 11.91 Q 3.54 12.88 5.04 12.88 A 3.885 3.885 0 0 0 6.181 12.72 A 3.104 3.104 0 0 0 7.51 11.91 A 3.184 3.184 0 0 0 8.309 10.464 Q 8.441 9.965 8.458 9.371 A 6.168 6.168 0 0 0 8.46 9.2 Z M 93.36 14 L 91.78 14 L 91.78 4.22 L 93.36 4.22 L 93.36 14 Z M 30.14 2.9 L 28.2 2.9 L 25.72 0.18 L 27.52 0.18 L 29.02 1.84 L 29.3 1.84 L 30.82 0.18 L 32.6 0.18 L 30.14 2.9 Z M 42.38 9.76 L 42.38 9.54 L 39.14 9.54 A 3.545 3.545 0 0 0 38.469 9.6 Q 38.063 9.678 37.739 9.859 A 2.089 2.089 0 0 0 37.59 9.95 A 1.328 1.328 0 0 0 36.997 10.922 A 1.958 1.958 0 0 0 36.98 11.18 A 1.709 1.709 0 0 0 37.076 11.766 A 1.47 1.47 0 0 0 37.61 12.46 A 2.284 2.284 0 0 0 38.423 12.829 Q 38.742 12.907 39.116 12.918 A 4.2 4.2 0 0 0 39.24 12.92 A 3.852 3.852 0 0 0 40.253 12.793 A 2.887 2.887 0 0 0 41.51 12.09 Q 42.38 11.26 42.38 9.76 Z M 76.18 9.76 L 76.18 9.54 L 72.94 9.54 A 3.545 3.545 0 0 0 72.269 9.6 Q 71.863 9.678 71.539 9.859 A 2.089 2.089 0 0 0 71.39 9.95 A 1.328 1.328 0 0 0 70.797 10.922 A 1.958 1.958 0 0 0 70.78 11.18 A 1.709 1.709 0 0 0 70.876 11.766 A 1.47 1.47 0 0 0 71.41 12.46 A 2.284 2.284 0 0 0 72.223 12.829 Q 72.542 12.907 72.916 12.918 A 4.2 4.2 0 0 0 73.04 12.92 A 3.852 3.852 0 0 0 74.053 12.793 A 2.887 2.887 0 0 0 75.31 12.09 Q 76.18 11.26 76.18 9.76 Z M 101.64 2.9 L 100.12 2.9 L 101.66 0.18 L 103.56 0.18 L 101.64 2.9 Z M 92.12 2.622 A 1.309 1.309 0 0 0 92.58 2.7 A 1.528 1.528 0 0 0 92.661 2.698 A 1.148 1.148 0 0 0 93.44 2.36 A 1.122 1.122 0 0 0 93.711 1.933 A 1.302 1.302 0 0 0 93.78 1.5 A 1.565 1.565 0 0 0 93.77 1.32 A 1.146 1.146 0 0 0 93.44 0.62 A 1.122 1.122 0 0 0 93.014 0.35 A 1.302 1.302 0 0 0 92.58 0.28 A 1.555 1.555 0 0 0 92.532 0.281 A 1.19 1.19 0 0 0 91.71 0.62 A 1.11 1.11 0 0 0 91.422 1.081 A 1.356 1.356 0 0 0 91.36 1.5 A 1.508 1.508 0 0 0 91.361 1.548 A 1.139 1.139 0 0 0 91.71 2.36 A 1.17 1.17 0 0 0 92.12 2.622 Z" vector-effect="non-scaling-stroke"/></g></svg>